<svg xmlns="http://www.w3.org/2000/svg" viewBox="0 0 560 360" fill="none" role="img" aria-labelledby="titulo descripcion">
  <title id="titulo">Seguimiento inteligente de una clínica</title>
  <desc id="descripcion">Un panel clínico conecta agenda, cuidado dental, seguridad y métricas.</desc>
  <defs>
    <linearGradient id="fondo" x1="64" y1="40" x2="470" y2="325" gradientUnits="userSpaceOnUse">
      <stop stop-color="#E5F5F2"/>
      <stop offset="1" stop-color="#F6F8F4"/>
    </linearGradient>
    <linearGradient id="panel" x1="175" y1="85" x2="398" y2="280" gradientUnits="userSpaceOnUse">
      <stop stop-color="#fff"/>
      <stop offset="1" stop-color="#F1F8F6"/>
    </linearGradient>
    <linearGradient id="acento" x1="222" y1="134" x2="342" y2="257" gradientUnits="userSpaceOnUse">
      <stop stop-color="#1A9990"/>
      <stop offset="1" stop-color="#075552"/>
    </linearGradient>
    <filter id="sombra" x="89" y="53" width="386" height="302" color-interpolation-filters="sRGB" filterUnits="userSpaceOnUse">
      <feGaussianBlur stdDeviation="14"/>
    </filter>
  </defs>
  <ellipse cx="283" cy="299" rx="174" ry="25" fill="#0B5753" fill-opacity=".09" filter="url(#sombra)"/>
  <circle cx="280" cy="180" r="147" fill="url(#fondo)"/>
  <circle cx="280" cy="180" r="121" stroke="#8CCAC1" stroke-opacity=".34" stroke-dasharray="3 8"/>
  <path d="M170 128 220 158M386 117 344 150M166 236l57-20m160 30-41-25" stroke="#5BAFA5" stroke-width="2" stroke-linecap="round" stroke-dasharray="3 7"/>

  <rect x="181" y="87" width="198" height="191" rx="22" fill="#0B3A3D" fill-opacity=".12"/>
  <rect x="174" y="78" width="198" height="191" rx="22" fill="url(#panel)" stroke="#C8E1DD" stroke-width="2"/>
  <path d="M196 102h48" stroke="#0B6E6A" stroke-width="6" stroke-linecap="round"/>
  <path d="M196 118h83" stroke="#C4D8D5" stroke-width="4" stroke-linecap="round"/>
  <rect x="196" y="139" width="72" height="51" rx="12" fill="#E5F4F1"/>
  <path d="M207 176v-13l10-8 9 6 13-14 17 9" stroke="#0B7772" stroke-width="3" stroke-linecap="round" stroke-linejoin="round"/>
  <path d="M207 179h49" stroke="#B5D7D2" stroke-width="2" stroke-linecap="round"/>
  <rect x="280" y="139" width="72" height="51" rx="12" fill="#F4F1E7"/>
  <path d="M296 151v5m21-5v5m-22 5h23m-20 7 6 6 11-12" stroke="#92733D" stroke-width="2.5" stroke-linecap="round" stroke-linejoin="round"/>
  <rect x="196" y="201" width="156" height="48" rx="12" fill="#F3F8F6"/>
  <path d="M210 231v-12m14 12v-20m14 20v-10m14 10v-15m14 15v-24m14 24v-12m14 12v-19m14 19v-8m14 8v-16" stroke="#49A79D" stroke-width="4" stroke-linecap="round"/>

  <g>
    <circle cx="151" cy="112" r="34" fill="#fff" stroke="#CBE5E1" stroke-width="2"/>
    <circle cx="151" cy="112" r="23" fill="#E8F5F2"/>
    <path d="M151 96v11m0 10v11m-16-16h11m10 0h11" stroke="#0B6E6A" stroke-width="3" stroke-linecap="round"/>
    <path d="m142 112 6 6 13-14" stroke="#0B6E6A" stroke-width="3" stroke-linecap="round" stroke-linejoin="round"/>
  </g>
  <g>
    <circle cx="407" cy="103" r="34" fill="#fff" stroke="#CBE5E1" stroke-width="2"/>
    <circle cx="407" cy="103" r="23" fill="#F8EFF0"/>
    <path d="M399 88c-6 0-9 5-9 11 0 5 3 8 4 12l2 7c.6 2 1.7 3 3 3 2.3 0 2.3-7 7-7s4.7 7 7 7c1.3 0 2.4-1 3-3l2-7c1-4 4-7 4-12 0-6-3-11-9-11-4 0-6 2-9 2s-5-2-9-2Z" fill="url(#acento)"/>
    <path d="M407 95v9m-4.5-4.5h9" stroke="#fff" stroke-width="2" stroke-linecap="round"/>
  </g>
  <g>
    <circle cx="150" cy="252" r="34" fill="#fff" stroke="#CBE5E1" stroke-width="2"/>
    <circle cx="150" cy="252" r="23" fill="#EDF3F8"/>
    <path d="M150 233 164 239v10c0 9-6 15-14 19-8-4-14-10-14-19v-10l14-6Z" fill="#347A94"/>
    <path d="m144 251 4 4 8-9" stroke="#fff" stroke-width="2.5" stroke-linecap="round" stroke-linejoin="round"/>
  </g>
  <g>
    <circle cx="406" cy="252" r="34" fill="#fff" stroke="#CBE5E1" stroke-width="2"/>
    <circle cx="406" cy="252" r="23" fill="#F6F1E4"/>
    <path d="M393 265v-25m0 25h27m-22-6 7-8 6 4 8-12" stroke="#92733D" stroke-width="2.5" stroke-linecap="round" stroke-linejoin="round"/>
    <path d="M414 243h4v4" stroke="#92733D" stroke-width="2" stroke-linecap="round" stroke-linejoin="round"/>
  </g>
  <circle cx="280" cy="37" r="4" fill="#74C9BE"/>
  <circle cx="437" cy="190" r="3" fill="#B2D7C7"/>
  <circle cx="122" cy="183" r="3" fill="#B2D7C7"/>
</svg>
